<svg viewBox="0 0 56.67 38" xmlns="http://www.w3.org/2000/svg" xmlns:xlink="http://www.w3.org/1999/xlink"><linearGradient id="a" gradientTransform="translate(5529.32 7368.23)" gradientUnits="userSpaceOnUse" x1="-5500.99" x2="-5500.99" y1="-7325.56" y2="-7374.24"><stop offset="0" stop-color="#ae0036"/><stop offset=".98" stop-color="#a4003a"/></linearGradient><linearGradient id="b" gradientUnits="userSpaceOnUse" x1="47.25" x2="47.25" y1="26.86" y2="10.68"><stop offset=".02" stop-color="#8a0130"/><stop offset="1" stop-color="#ae0036"/></linearGradient><linearGradient id="c" gradientTransform="translate(5548.98 7387.88)" x1="-5500.99" x2="-5500.99" xlink:href="#a" y1="-7361.63" y2="-7376.54"/><rect fill="url(#a)" height="56.67" rx="1.94" transform="matrix(0 1 -1 0 47.33 -9.33)" width="38" x="9.33" y="-9.33"/><path d="m30.69 9.58h33.12a2.44 2.44 0 0 1 2.44 2.42v4.23a12.16 12.16 0 0 1 -12.16 12.19h-13.68a12.16 12.16 0 0 1 -12.16-12.17v-4.25a2.44 2.44 0 0 1 2.44-2.42z" fill="url(#b)" transform="matrix(0 1 -1 0 66.25 -28.25)"/><path d="m31.45 10.32h33.07a2.46 2.46 0 0 1 2.48 2.46v3.22a11.68 11.68 0 0 1 -11.69 11.68h-14.65a11.68 11.68 0 0 1 -11.66-11.68v-3.22a2.46 2.46 0 0 1 2.45-2.46z" fill="url(#c)" transform="matrix(0 1 -1 0 66.99 -28.99)"/></svg>