<svg viewBox="0 0 66.69 38.03" xmlns="http://www.w3.org/2000/svg"><rect fill="#9d1532" height="38.03" rx="4.46" width="66.69"/><path d="m4.46 34a.45.45 0 0 1 -.46-.43v-29.11a.45.45 0 0 1 .46-.46h57.76a.45.45 0 0 1 .45.45v5h-1.47a1.45 1.45 0 0 0 -1.45 1.45v16a1.45 1.45 0 0 0 1.45 1.45h1.47v5.25a.45.45 0 0 1 -.45.45h-57.76z" fill="#80102a"/><path d="m62.23 4.57-57.77-.05a.44.44 0 0 0 -.46.43v28.64a.44.44 0 0 0 .44.43h9.09l48.97-29.35a.44.44 0 0 0 -.27-.1z" fill="#5e0d1e"/><path d="m13.55 34h48.34a.44.44 0 0 0 .44-.43v-5.06h-1.45a1.43 1.43 0 0 1 -1.44-1.4v-16.25a1.43 1.43 0 0 1 1.44-1.4l1.79.05v-4.51a.42.42 0 0 0 -.17-.33z" fill="#660d21"/></svg>